<?xml version="1.0" standalone="no"?>
<!DOCTYPE svg PUBLIC "-//W3C//DTD SVG 20010904//EN"
 "http://www.w3.org/TR/2001/REC-SVG-20010904/DTD/svg10.dtd">
<svg version="1.0" xmlns="http://www.w3.org/2000/svg"
 width="1016.000000pt" height="1336.000000pt" viewBox="0 0 1016.000000 1336.000000"
 preserveAspectRatio="xMidYMid meet">
<metadata>
Created by potrace 1.15, written by Peter Selinger 2001-2017
</metadata>
<g transform="translate(0.000000,1336.000000) scale(0.100000,-0.100000)"
fill="#000000" stroke="none">
<path d="M2273 13275 c-84 -25 -138 -68 -169 -133 -44 -94 -1 -294 87 -402 35
-43 60 -83 65 -105 11 -45 12 -58 3 -87 -10 -36 -65 -90 -119 -118 -39 -20
-131 -56 -230 -90 -94 -32 -181 -75 -215 -106 -23 -21 -29 -34 -28 -63 3 -58
7 -80 14 -75 11 7 21 -32 21 -83 0 -51 -31 -173 -43 -173 -5 0 -9 -5 -9 -10 0
-33 -89 -108 -164 -139 -74 -31 -95 -32 -321 -20 -31 2 -104 -6 -145 -16 -3 0
-25 -12 -50 -25 -25 -13 -49 -23 -55 -21 -5 1 -7 0 -3 -4 6 -6 -13 -33 -49
-70 -6 -6 -18 -35 -26 -62 -16 -54 -12 -100 14 -140 33 -53 162 -71 274 -38
41 11 88 16 161 14 126 -3 127 -15 4 -35 -19 -3 -111 -7 -205 -9 -233 -5 -269
-9 -395 -45 -41 -12 -85 -22 -97 -23 -12 -1 -20 -4 -17 -6 7 -8 -50 -32 -63
-26 -8 2 -12 1 -9 -3 2 -4 -19 -21 -47 -37 -93 -52 -182 -125 -237 -195 -19
-25 -38 -46 -42 -48 -5 -2 -8 -10 -8 -17 0 -7 -3 -15 -7 -17 -14 -6 -60 -102
-77 -159 -27 -96 -35 -207 -20 -294 4 -22 8 -51 8 -65 1 -14 4 -27 8 -30 6 -5
9 -30 25 -225 4 -49 8 -238 8 -420 -1 -289 -4 -420 -20 -670 -6 -100 -17 -305
-20 -390 -5 -101 -5 -557 -1 -610 2 -22 6 -74 10 -115 3 -41 8 -106 11 -145 5
-75 13 -149 20 -205 3 -19 7 -57 10 -85 3 -27 7 -65 9 -85 3 -19 8 -60 11 -90
6 -57 11 -87 19 -130 3 -14 7 -43 11 -65 6 -42 33 -216 43 -275 3 -19 6 -47 6
-62 1 -14 4 -24 8 -21 5 2 8 -8 8 -24 0 -15 7 -52 14 -80 8 -29 12 -53 10 -53
-3 0 0 -8 5 -18 7 -13 6 -23 -2 -32 -9 -10 -9 -11 0 -6 9 5 13 0 14 -16 0 -13
2 -30 4 -38 2 -8 7 -28 10 -45 3 -16 19 -79 35 -140 27 -104 35 -136 46 -196
4 -21 63 -232 89 -319 46 -153 54 -187 50 -200 -4 -8 -3 -11 1 -7 10 9 56
-132 48 -145 -4 -6 -2 -8 3 -5 6 4 14 -5 19 -21 8 -31 9 -32 16 -52 42 -112
69 -201 62 -211 -4 -8 -3 -10 4 -5 11 7 16 -7 15 -41 -1 -7 2 -11 6 -8 4 2 18
-26 31 -63 13 -37 31 -85 41 -107 51 -117 90 -226 83 -236 -4 -7 -3 -9 3 -6 5
3 20 -24 33 -61 13 -37 36 -93 52 -125 16 -32 26 -63 22 -70 -4 -7 -4 -9 1 -5
10 10 57 -91 48 -105 -3 -5 -1 -7 5 -3 10 6 28 -30 24 -47 -1 -5 2 -6 8 -2 5
3 10 1 10 -5 0 -6 11 -28 25 -51 14 -22 23 -45 19 -51 -4 -6 -3 -8 3 -5 13 8
26 -20 16 -36 -3 -7 -3 -9 2 -5 7 6 75 -83 75 -98 0 -3 32 -52 70 -109 39 -57
70 -107 70 -110 0 -4 27 -42 60 -85 33 -43 60 -81 60 -85 0 -3 32 -48 70 -100
41 -56 68 -101 64 -108 -4 -7 -4 -9 1 -5 4 4 50 -49 102 -119 52 -69 100 -131
106 -138 13 -13 120 -133 150 -169 134 -156 506 -529 605 -606 21 -17 127
-108 147 -127 8 -7 17 -13 22 -13 4 0 26 -16 48 -36 22 -19 52 -43 68 -52 15
-9 27 -20 27 -24 0 -4 5 -8 11 -8 13 0 142 -90 147 -102 2 -4 8 -8 14 -8 11 0
81 -51 86 -62 2 -5 10 -8 18 -8 8 0 14 -4 14 -10 0 -5 5 -10 11 -10 6 0 39
-20 73 -45 35 -25 69 -45 75 -45 6 0 11 -4 11 -10 0 -5 5 -10 11 -10 6 0 30
-13 54 -30 24 -16 46 -30 50 -30 3 0 22 -11 43 -24 53 -35 117 -71 192 -108
36 -18 67 -35 70 -38 3 -3 25 -14 50 -25 25 -11 47 -22 50 -25 6 -6 152 -78
235 -115 84 -38 130 -59 205 -94 36 -16 77 -33 93 -36 15 -4 27 -11 27 -16 0
-5 8 -9 18 -9 9 0 33 -8 52 -19 19 -10 50 -22 68 -25 17 -4 32 -11 32 -16 0
-5 15 -12 33 -16 17 -3 48 -15 67 -25 19 -11 42 -19 50 -19 9 0 24 -6 35 -13
11 -8 41 -20 68 -27 26 -7 47 -16 47 -20 0 -4 13 -10 30 -13 16 -4 49 -15 72
-25 24 -11 61 -25 83 -32 22 -7 45 -16 50 -20 6 -5 34 -15 64 -24 29 -9 59
-19 65 -24 6 -5 31 -14 56 -21 25 -7 50 -17 55 -21 6 -4 35 -15 65 -25 30 -10
60 -21 65 -25 6 -5 34 -15 64 -24 29 -9 59 -20 65 -24 13 -11 437 -134 511
-149 28 -6 82 -18 120 -28 39 -9 104 -25 145 -35 41 -10 107 -26 145 -35 39
-10 78 -17 88 -17 10 0 36 -6 58 -14 23 -7 45 -12 49 -9 5 3 20 1 34 -4 14 -6
42 -12 63 -15 21 -3 65 -10 98 -16 33 -6 74 -13 90 -15 17 -3 41 -7 55 -9 89
-15 162 -26 210 -31 30 -4 64 -8 75 -9 11 -2 49 -6 85 -11 36 -4 84 -16 108
-27 24 -10 57 -21 75 -23 18 -2 70 -9 117 -17 85 -13 133 -14 505 -5 187 5
324 -5 390 -28 38 -13 166 -80 183 -95 55 -49 74 -60 94 -49 11 6 26 8 34 5 8
-3 13 -2 10 3 -6 10 64 30 134 38 81 11 275 3 345 -13 11 -2 40 -6 65 -8 25
-3 72 -8 105 -12 75 -10 247 -10 300 0 22 4 45 7 52 8 15 2 77 120 96 185 16
52 15 102 -2 145 -12 30 -69 88 -87 88 -8 0 -14 5 -14 10 0 6 -6 10 -12 10 -7
0 -26 7 -41 15 -36 18 -121 45 -166 51 -18 2 -59 12 -90 21 -31 9 -63 16 -71
16 -22 -1 -179 45 -225 66 -22 10 -55 25 -72 32 -18 8 -33 17 -33 21 0 5 -5 8
-11 8 -6 0 -17 6 -25 14 -7 8 -17 16 -21 18 -12 5 -73 86 -73 96 0 6 -11 9
-24 8 -13 0 -22 -3 -20 -5 6 -6 -44 -35 -86 -50 -64 -23 -94 -26 -197 -21 -29
2 -155 59 -161 72 -2 5 -9 8 -16 8 -7 0 -21 8 -32 18 -25 22 -74 52 -96 59
-10 3 -18 9 -18 14 0 5 -6 9 -14 9 -8 0 -16 3 -18 8 -11 26 -191 91 -271 99
-62 5 -237 53 -237 65 0 4 -6 8 -13 8 -20 0 -57 38 -57 59 0 23 68 93 82 85 6
-4 8 -3 5 3 -4 6 6 16 20 22 15 7 43 25 64 42 20 16 40 29 44 29 12 0 160 117
190 151 17 19 39 52 49 74 10 22 21 45 24 50 3 6 2 7 -3 3 -4 -4 -18 6 -32 23
-33 38 -99 82 -143 95 -32 9 -163 10 -200 1 -82 -20 -184 -59 -278 -108 -63
-33 -117 -57 -122 -54 -5 3 -12 0 -16 -6 -5 -8 -2 -10 7 -5 30 15 -19 -16
-100 -64 -47 -27 -89 -46 -94 -43 -6 3 -7 1 -4 -4 4 -6 -29 -28 -74 -50 l-81
-40 -52 26 c-28 14 -53 28 -56 31 -3 3 -32 18 -65 35 -33 16 -62 32 -65 35 -3
3 -33 19 -67 35 -35 17 -63 33 -63 38 0 4 -7 7 -15 7 -8 0 -15 5 -15 10 0 6
-9 10 -20 10 -11 0 -20 5 -20 10 0 6 -7 10 -15 10 -8 0 -15 4 -15 8 0 5 -16
14 -35 22 -19 8 -35 17 -35 22 0 4 -5 8 -11 8 -6 0 -30 14 -54 30 -24 17 -48
30 -54 30 -6 0 -11 5 -11 10 0 6 -7 10 -15 10 -8 0 -15 5 -15 10 0 6 -7 10
-15 10 -8 0 -15 5 -15 10 0 6 -7 10 -15 10 -8 0 -15 5 -15 10 0 6 -7 10 -15
10 -8 0 -15 5 -15 10 0 6 -5 10 -11 10 -11 0 -82 50 -87 63 -2 4 -10 7 -18 7
-8 0 -14 5 -14 10 0 6 -5 10 -11 10 -9 0 -74 44 -89 60 -3 3 -38 29 -78 58
-40 29 -83 61 -95 72 -34 29 -63 53 -94 77 -40 30 -66 54 -167 146 -118 108
-349 345 -450 461 -28 32 -58 66 -66 75 -9 9 -33 38 -55 65 -22 27 -61 75 -87
107 -81 100 -191 253 -191 266 0 7 -3 10 -7 8 -4 -2 -15 11 -26 30 -10 18 -40
64 -65 102 -26 38 -59 91 -73 118 -15 28 -36 65 -47 83 -11 18 -16 38 -13 44
4 6 2 8 -3 5 -13 -8 -26 20 -16 36 3 7 2 9 -2 4 -10 -9 -66 103 -58 118 4 5 3
7 -2 3 -11 -10 -57 91 -48 105 3 7 2 9 -2 4 -11 -10 -37 51 -28 67 3 6 2 8 -2
3 -5 -4 -33 48 -62 115 -29 68 -60 136 -68 153 -7 16 -11 33 -9 37 3 4 1 8 -4
8 -5 0 -22 30 -37 68 -34 81 -47 111 -75 177 -12 28 -35 86 -51 130 -16 44
-36 94 -44 112 -8 17 -15 37 -15 45 0 8 -3 18 -7 22 -5 4 -8 11 -8 14 -1 7
-32 105 -42 132 -8 20 -7 19 -43 135 -17 55 -28 108 -26 118 2 9 0 15 -4 12
-6 -4 -23 56 -21 80 0 2 -5 19 -10 37 -5 18 -14 60 -19 93 -8 54 -12 80 -25
165 -24 160 -38 821 -22 1045 12 170 16 216 22 275 3 30 8 73 10 95 3 22 7 56
10 75 3 19 7 53 10 75 2 22 7 58 10 80 7 42 11 68 19 125 3 19 10 64 16 100 7
36 13 74 15 85 4 26 25 139 35 190 5 22 13 68 19 102 6 35 16 74 21 87 5 13 6
26 3 29 -3 3 3 29 12 57 9 28 15 54 12 56 -3 3 3 32 13 64 10 32 16 61 13 64
-3 2 2 26 11 53 9 26 18 67 21 90 3 23 9 53 15 67 5 14 12 45 15 70 2 24 10
57 16 73 6 15 12 42 13 58 2 17 10 57 19 90 16 62 43 181 50 225 3 14 15 68
27 120 12 52 23 104 24 115 3 31 26 135 42 193 9 30 13 56 11 59 -7 6 12 59
46 133 30 64 85 133 100 123 5 -3 7 -1 4 4 -10 16 36 41 87 48 29 4 66 1 103
-10 68 -18 133 -47 133 -57 0 -5 7 -8 15 -8 8 0 15 -4 15 -10 0 -5 5 -10 11
-10 13 0 142 -90 147 -102 2 -4 8 -8 14 -8 11 0 81 -51 86 -62 2 -5 10 -8 17
-8 7 0 15 -4 17 -8 9 -21 204 -128 271 -149 74 -22 201 -17 218 9 5 8 -9 94
-28 163 -3 11 -6 28 -6 37 -1 9 -5 14 -9 12 -4 -3 -8 1 -8 8 0 50 -231 321
-348 408 -32 24 -57 44 -97 78 -11 9 -54 41 -95 71 -41 30 -76 58 -78 63 -2 4
-10 8 -17 8 -7 0 -15 4 -17 8 -1 5 -30 28 -62 52 -33 24 -69 51 -80 61 -12 10
-32 27 -45 38 -13 12 -56 37 -95 56 -64 31 -86 46 -151 104 -31 28 -97 101
-135 150 -19 25 -44 54 -55 66 -11 12 -27 30 -36 41 -32 38 -137 134 -148 134
-6 0 -11 5 -11 10 0 6 -7 10 -15 10 -8 0 -15 3 -15 8 0 7 -73 42 -89 42 -5 0
-9 39 -8 88 1 95 -1 107 -22 132 -34 43 -92 100 -101 100 -5 0 -10 4 -10 8 0
5 -21 20 -47 33 -27 13 -49 27 -51 32 -2 4 -8 7 -13 7 -5 0 -60 25 -123 55
-62 30 -118 55 -124 55 -7 0 -12 5 -12 10 0 6 -4 10 -10 10 -13 0 -114 62
-118 72 -2 4 -8 8 -14 8 -20 0 -127 123 -141 161 -3 10 3 26 14 37 10 12 19
26 19 32 0 5 5 10 10 10 6 0 10 7 10 15 0 9 7 26 14 38 22 32 22 96 2 140 -10
20 -22 37 -26 37 -5 0 -15 6 -22 13 -31 29 -178 82 -254 92 -50 6 -244 65
-285 86 -62 31 -95 80 -98 144 -2 54 17 113 46 143 66 68 115 198 111 294 -2
31 -5 54 -7 52 -2 -2 -12 13 -21 34 -24 52 -96 120 -157 148 -28 13 -54 24
-57 24 -2 0 -17 5 -33 12 -53 22 -184 29 -240 13z m250 -88 c15 -7 27 -15 27
-19 0 -5 6 -8 13 -9 16 0 57 -52 63 -81 18 -77 21 -104 13 -126 -9 -22 -14
-24 -57 -20 -26 3 -67 14 -92 26 -25 11 -59 24 -75 27 -17 4 -40 14 -52 21
-12 8 -42 15 -67 15 -61 3 -80 -17 -73 -79 5 -46 5 -46 -8 -17 -7 17 -11 45
-9 63 8 65 80 172 105 156 8 -4 9 -3 5 4 -14 22 101 63 154 54 14 -2 37 -9 53
-15z m337 -1366 c63 -41 120 -80 126 -85 7 -6 29 -24 49 -41 50 -40 94 -98
105 -136 l9 -31 -22 18 c-12 11 -24 21 -27 24 -3 3 -15 11 -27 17 -18 10 -25
10 -38 -3 -8 -8 -15 -21 -15 -27 -1 -7 -2 -42 -3 -79 -3 -86 -22 -110 -81
-102 -49 6 -79 24 -127 77 -109 120 -164 335 -114 441 16 33 18 34 34 19 9 -9
68 -51 131 -92z m-402 -115 c65 -4 87 -9 98 -23 21 -26 74 -117 74 -126 0 -12
-59 2 -100 24 -19 11 -41 19 -48 19 -8 0 -26 7 -40 15 -62 35 -185 63 -267 59
-124 -5 -157 -4 -173 5 -20 11 70 28 170 30 46 1 84 3 85 5 3 2 70 0 201 -8z
m-55 -400 c103 -3 192 -8 198 -12 6 -3 158 -8 337 -9 180 -2 359 -6 397 -10
87 -8 141 -32 136 -60 -3 -20 -68 -85 -84 -85 -9 0 -2 -30 18 -75 20 -45 55
-175 46 -175 -10 0 -81 95 -108 146 -13 25 -21 50 -17 56 4 6 3 8 -3 5 -6 -4
-18 13 -28 38 -9 25 -21 45 -26 45 -12 0 -12 -5 6 -47 8 -19 15 -51 15 -69 0
-42 -30 -154 -42 -154 -4 0 -8 -5 -8 -11 0 -6 -15 -26 -33 -45 -24 -26 -44
-37 -75 -41 -40 -5 -45 -3 -82 36 -43 45 -74 106 -63 124 3 5 2 7 -4 4 -9 -6
-50 128 -45 146 1 5 -1 6 -6 3 -4 -2 -13 8 -20 23 -14 31 -55 54 -82 46 -32
-10 -51 -53 -53 -115 l-1 -58 -21 27 c-30 41 -82 91 -94 91 -6 0 -11 4 -11 8
0 5 -16 14 -35 22 -19 8 -35 17 -35 21 0 4 -15 10 -32 14 -18 4 -43 13 -55 21
-12 8 -38 16 -57 18 -19 3 -54 10 -77 16 -23 7 -61 13 -83 16 -23 2 -68 7
-101 10 -33 4 -152 8 -265 9 -113 2 -212 3 -219 4 -22 2 -1 19 29 23 27 5 385
1 683 -6z m-1443 -510 c36 -3 91 -8 123 -12 49 -6 55 -9 45 -22 -44 -53 -54
-135 -25 -204 20 -48 150 -178 177 -178 6 0 10 -3 10 -8 0 -4 15 -13 33 -21
17 -8 34 -17 37 -20 14 -17 60 -28 104 -25 51 3 106 21 106 35 0 23 -23 60
-69 109 -71 76 -68 99 11 105 65 5 66 23 0 85 -59 57 -102 108 -102 120 0 24
72 30 200 16 30 -4 80 -9 110 -11 30 -3 75 -7 100 -9 81 -9 457 -17 960 -20
439 -3 550 -7 665 -21 31 -3 106 -12 185 -20 25 -3 68 -8 95 -11 88 -11 100
-12 115 -13 10 -1 6 -7 -11 -19 -36 -24 -51 -42 -71 -82 -38 -81 -48 -140 -23
-140 8 0 15 -4 15 -10 0 -5 7 -10 15 -10 8 0 15 -4 15 -10 0 -5 7 -10 15 -10
8 0 15 -4 15 -9 0 -5 25 -15 55 -22 86 -19 125 11 125 96 0 50 -36 137 -71
173 -17 18 -30 32 -28 32 2 0 31 -5 64 -10 33 -6 75 -13 94 -15 18 -3 37 -7
41 -10 4 -2 27 -7 51 -10 24 -3 58 -10 74 -15 17 -5 46 -12 65 -14 43 -6 404
-110 445 -129 17 -8 42 -19 58 -25 28 -12 29 -15 31 -101 4 -121 -141 -261
-330 -317 -82 -24 -206 -34 -299 -25 -11 2 -92 2 -180 2 -218 0 -377 9 -545
34 -25 4 -71 10 -143 20 -60 8 -110 15 -137 20 -14 2 -41 6 -60 9 -19 3 -62
10 -95 16 -33 7 -69 12 -80 11 -11 0 -29 6 -40 13 -24 14 -94 36 -144 43 -53
8 -300 9 -346 1 -22 -4 -69 -12 -105 -17 -36 -6 -74 -13 -85 -15 -11 -2 -36
-6 -55 -10 -32 -6 -48 -9 -98 -20 -11 -2 -43 -7 -73 -11 -30 -4 -57 -9 -61
-11 -29 -18 -392 -24 -408 -8 -6 6 -1 19 13 34 28 31 38 55 31 75 -7 18 -87
42 -164 50 -30 3 -66 7 -80 9 -76 11 -108 17 -137 25 -32 9 -39 5 -34 -22 3
-16 -23 -92 -36 -105 -22 -23 -71 -32 -106 -20 -18 6 -34 14 -37 17 -3 3 -17
12 -31 19 -60 31 -188 180 -173 203 4 7 3 9 -4 5 -11 -7 -33 48 -38 97 -5 43
20 94 57 112 19 10 58 17 100 18 38 1 69 5 69 9 0 16 -89 66 -147 82 -55 15
-176 19 -168 6 2 -3 -18 -18 -44 -33 -43 -26 -121 -120 -121 -146 0 -6 -4 -11
-9 -11 -5 0 -11 -14 -15 -31 -3 -17 -12 -45 -19 -62 -16 -37 -48 -161 -52
-197 -1 -14 -3 -31 -4 -37 -4 -38 -41 25 -56 96 -3 11 -8 31 -11 44 -16 63
-16 180 1 243 9 35 21 64 26 64 5 0 9 5 9 12 0 16 83 94 119 113 53 27 175 56
261 62 47 3 86 6 88 8 1 1 19 1 40 -1 20 -2 66 -5 102 -8z m4500 -955 c85 -62
114 -108 107 -168 -5 -47 -27 -80 -46 -69 -6 4 -14 24 -17 45 -5 29 -22 55
-66 102 -63 67 -93 114 -83 129 8 13 63 -8 105 -39z m-1865 -26 c78 -5 107 -8
190 -20 22 -3 51 -7 65 -9 14 -2 46 -9 72 -16 39 -10 55 -9 105 5 195 58 275
-31 238 -264 -15 -89 -57 -236 -86 -297 -10 -22 -19 -45 -19 -50 0 -17 -114
-236 -148 -286 -39 -57 -40 -66 -3 -60 23 3 32 -1 42 -19 16 -30 15 -146 -2
-195 -7 -22 -13 -50 -14 -64 -3 -39 -46 -183 -61 -205 -8 -11 -14 -25 -14 -33
0 -19 -63 -176 -72 -180 -4 -2 -8 -10 -8 -19 0 -8 -7 -27 -15 -41 -8 -15 -21
-42 -30 -60 l-16 -33 35 7 c31 5 36 3 37 -12 5 -71 -5 -143 -26 -190 -43 -95
-80 -169 -87 -172 -4 -2 -8 -8 -8 -13 0 -6 -11 -22 -25 -37 -35 -38 -31 -47
21 -47 93 -1 93 -85 0 -181 l-34 -35 -7 30 c-7 32 -28 42 -60 27 -22 -10 -105
-137 -105 -161 0 -7 -4 -17 -10 -20 -10 -6 -54 -144 -48 -150 7 -7 25 11 57
57 31 47 66 75 86 69 6 -1 7 0 3 4 -17 17 65 75 106 75 l28 0 -6 -77 c-35
-416 -36 -440 -41 -838 -2 -192 -5 -363 -8 -379 -3 -18 5 -49 20 -83 14 -30
23 -60 20 -67 -3 -6 -25 -18 -48 -25 -24 -7 -58 -18 -74 -26 -49 -22 -100 -87
-107 -135 -3 -23 0 -25 29 -22 28 3 40 -4 82 -46 52 -52 79 -101 106 -194 18
-64 21 -180 6 -221 -14 -37 -14 -47 2 -47 8 0 22 26 33 63 23 76 56 141 69
136 6 -2 9 -10 9 -16 -1 -7 2 -10 7 -7 5 3 9 -4 9 -15 0 -11 4 -22 9 -26 5 -3
13 -19 16 -37 4 -17 19 -52 33 -77 14 -25 30 -55 36 -66 6 -11 18 -25 27 -32
9 -7 20 -27 24 -45 4 -18 10 -42 13 -53 3 -11 6 -32 6 -47 1 -14 3 -24 6 -22
2 3 27 -80 56 -183 29 -103 66 -228 83 -276 18 -48 29 -93 25 -99 -4 -7 -3 -8
4 -4 7 4 12 1 12 -6 0 -13 104 -226 139 -283 23 -39 71 -159 71 -179 0 -9 -11
-21 -25 -26 -31 -12 -31 -24 1 -135 42 -146 122 -301 226 -437 81 -107 333
-358 359 -358 5 0 9 -3 9 -7 0 -5 23 -24 50 -43 27 -19 50 -38 50 -42 0 -5 7
-8 15 -8 8 0 15 -4 15 -8 0 -4 23 -21 50 -37 28 -16 50 -33 50 -37 0 -4 7 -8
15 -8 8 0 15 -4 15 -10 0 -5 7 -10 15 -10 8 0 15 -4 15 -8 0 -5 16 -14 35 -22
19 -8 35 -17 35 -22 0 -4 7 -8 15 -8 8 0 15 -4 15 -10 0 -5 6 -10 13 -10 13 0
57 -89 60 -121 1 -10 5 -15 9 -13 4 3 8 1 8 -4 0 -6 16 -38 35 -72 19 -34 32
-67 28 -73 -3 -5 -2 -7 4 -4 5 3 26 -20 46 -51 67 -105 220 -247 290 -269 9
-3 17 -9 17 -14 0 -5 8 -9 18 -9 10 0 27 -6 38 -14 21 -15 89 -36 139 -43 17
-2 41 -6 55 -8 14 -2 29 -4 33 -4 4 -1 -1 -11 -13 -23 -23 -25 -23 -28 -11
-61 17 -43 147 -157 180 -157 6 0 11 -4 11 -10 0 -5 7 -10 15 -10 8 0 15 -4
15 -9 0 -5 8 -11 18 -14 18 -6 74 -38 82 -48 3 -3 20 -12 38 -20 17 -8 32 -17
32 -21 0 -5 4 -8 10 -8 13 0 144 -80 148 -91 2 -5 8 -9 13 -9 12 0 49 -37 49
-50 0 -5 -6 -10 -12 -11 -7 -1 -29 -3 -48 -5 -119 -11 -156 -10 -219 9 -36 11
-67 24 -69 29 -2 4 -10 8 -17 8 -7 0 -69 37 -137 82 -149 98 -172 111 -223
128 -35 11 -90 45 -121 75 -6 5 -25 21 -43 35 -18 14 -41 32 -52 42 -11 9 -39
31 -61 50 -23 18 -55 45 -70 60 -16 16 -33 28 -38 28 -5 0 -13 6 -17 13 -4 6
-26 25 -48 42 -22 16 -42 31 -45 35 -14 15 -80 60 -89 60 -6 0 -11 5 -11 10 0
6 -7 10 -15 10 -8 0 -15 5 -15 10 0 6 -6 10 -14 10 -8 0 -16 4 -18 8 -5 13
-167 88 -218 102 -94 25 -193 27 -276 6 -62 -16 -100 -24 -149 -32 -16 -3 -36
-7 -42 -9 -26 -9 -11 11 30 41 73 54 125 83 133 76 4 -4 4 -2 1 4 -4 7 0 14 8
18 13 4 22 36 11 36 -21 0 -169 -57 -196 -75 -40 -28 -116 -62 -145 -66 -11
-2 -36 0 -56 4 -44 9 -67 47 -99 162 -27 96 -63 154 -111 177 -37 19 -110 26
-146 14 -15 -5 -23 -3 -23 4 0 6 -29 39 -64 73 -35 34 -68 72 -74 83 -14 26
-7 33 61 58 51 19 53 31 7 41 -17 4 -30 10 -30 15 0 5 -10 10 -22 12 l-23 3
25 22 c14 13 51 43 83 68 54 43 73 75 45 75 -7 0 -26 7 -43 16 -16 9 -52 23
-80 31 -27 8 -54 18 -60 23 -5 4 -28 13 -50 20 -42 13 -97 36 -180 76 -28 13
-56 24 -63 24 -6 0 -12 5 -12 10 0 6 -4 10 -10 10 -22 0 -149 86 -196 134 -40
39 -56 66 -73 118 -50 151 -23 175 114 106 33 -17 70 -36 82 -42 13 -6 23 -14
23 -18 0 -5 7 -8 15 -8 8 0 29 -9 47 -20 24 -15 28 -20 13 -19 -67 6 -125 -17
-125 -50 0 -21 31 -73 58 -98 30 -28 135 -93 150 -93 6 0 12 -4 14 -8 4 -10
174 -60 213 -62 61 -4 105 0 105 10 0 5 -11 20 -24 33 -32 32 -89 145 -80 159
4 6 3 8 -3 5 -12 -8 -65 101 -57 116 4 7 3 9 -1 4 -5 -4 -29 32 -53 80 -24 49
-50 95 -58 104 -8 8 -14 19 -14 23 0 5 -30 52 -67 105 -65 93 -283 320 -433
451 -34 30 -77 69 -95 85 -40 36 -111 98 -143 124 -13 11 -41 34 -64 53 -23
18 -53 44 -67 58 -14 14 -46 41 -71 60 -25 19 -57 46 -71 60 -14 14 -45 41
-70 60 -78 63 -123 104 -169 154 -25 27 -58 63 -73 80 -27 29 -62 86 -54 86
13 0 82 -40 142 -83 66 -47 212 -186 265 -253 14 -17 35 -36 47 -42 12 -7 27
-18 35 -24 38 -36 120 -64 167 -59 29 3 70 31 71 48 0 6 5 13 10 15 6 2 12 35
13 73 3 63 -1 89 -37 210 -11 38 -43 97 -78 143 -55 74 -73 90 -105 98 -31 8
-81 33 -101 51 -7 7 -21 18 -30 25 -27 19 -104 125 -145 198 -20 36 -54 87
-74 114 l-37 49 29 -8 c60 -16 119 -22 174 -18 31 3 66 5 78 6 12 1 20 4 17 8
-2 4 9 16 26 25 19 12 36 35 47 62 19 50 19 49 8 122 -4 30 -8 65 -9 77 -1 11
-4 19 -8 16 -5 -2 -8 2 -8 9 0 7 -25 63 -56 123 -31 61 -76 149 -100 196 -24
48 -50 89 -59 92 -17 7 -19 -1 -14 -58 1 -22 3 -59 3 -82 1 -22 4 -39 9 -36 4
2 8 -11 8 -29 1 -18 3 -42 4 -53 10 -69 12 -142 3 -171 -8 -29 -12 -33 -27
-24 -30 15 -36 45 -46 210 -5 82 -5 85 -25 148 -15 49 -81 123 -152 170 -59
40 -72 40 -88 0 -42 -109 -79 -162 -98 -143 -4 3 -8 36 -10 73 -2 37 -8 71
-13 76 -5 6 -35 11 -67 12 -67 1 -99 10 -122 33 -48 48 -61 169 -29 264 48
139 23 232 -121 447 -57 84 -110 186 -110 209 0 7 13 0 30 -16 142 -135 258
-177 321 -114 16 16 30 40 30 53 5 81 -3 122 -36 192 -15 32 -36 85 -46 118
-34 114 -80 154 -139 123 -17 -9 -36 -13 -42 -9 -6 4 -8 3 -5 -3 6 -10 -44
-53 -63 -53 -6 0 -33 -11 -60 -25 -28 -14 -50 -23 -50 -20 0 3 -8 2 -17 -3
-10 -6 -28 -6 -40 -1 -28 10 -30 46 -7 127 17 61 37 110 103 253 21 47 28 89
13 89 -4 0 -18 -7 -31 -16 -13 -9 -40 -17 -62 -18 -21 -1 -47 -11 -59 -21 -18
-17 -38 -69 -45 -120 -1 -11 -8 -49 -15 -85 -6 -36 -14 -78 -17 -95 -7 -47
-13 -61 -21 -49 -8 12 -75 44 -91 44 -6 0 -11 5 -11 10 0 6 -17 10 -39 10 -47
0 -58 -24 -36 -78 8 -19 12 -39 8 -45 -3 -5 -2 -7 4 -4 5 3 18 -11 28 -31 21
-40 106 -180 136 -224 11 -15 19 -30 19 -33 0 -3 11 -23 25 -46 14 -22 23 -45
19 -51 -4 -6 -3 -8 2 -5 5 3 17 -8 27 -25 l17 -30 -32 27 c-26 22 -38 26 -67
21 -20 -4 -44 -7 -53 -8 -9 -1 -15 -5 -12 -9 8 -13 -82 -50 -102 -42 -57 22
-71 58 -73 193 -2 142 -8 212 -26 272 -7 25 -10 50 -7 54 4 4 1 4 -5 0 -7 -4
-13 -2 -13 4 0 18 -91 130 -105 130 -2 0 -20 11 -40 24 -24 16 -30 24 -18 24
30 -2 91 29 108 55 10 16 15 41 13 75 -2 27 -5 49 -9 47 -3 -2 -14 13 -24 33
-22 42 -62 97 -118 162 -60 70 -62 76 -26 94 17 9 36 13 42 9 5 -3 7 -2 4 4
-7 11 72 60 88 54 5 -1 7 1 3 4 -10 10 26 36 93 69 45 21 61 25 81 17 45 -17
108 -117 111 -176 1 -18 4 -31 8 -30 3 2 10 -9 16 -24 l10 -29 -40 6 c-52 7
-101 -19 -123 -67 -18 -38 -23 -127 -11 -196 9 -54 58 -155 74 -155 7 0 13 -5
13 -11 0 -14 41 -1 61 20 9 9 28 59 43 111 16 52 36 113 46 136 28 60 44 168
35 238 -4 33 -8 71 -8 83 -1 12 -4 20 -6 18 -2 -2 -20 22 -41 53 -65 99 -196
206 -229 185 -25 -15 -80 -8 -97 13 -40 51 -57 101 -60 175 -3 65 -1 80 17
103 25 31 42 32 92 6 20 -11 39 -20 41 -20 2 0 9 22 16 50 13 53 61 113 103
129 33 13 136 6 235 -15 93 -20 129 -14 148 24 6 13 15 23 20 22 5 -1 18 2 29
6 11 3 23 6 28 5 4 -1 7 8 7 18 0 11 5 23 10 26 15 9 12 99 -5 164 -8 31 -17
72 -20 91 -3 19 -10 49 -14 66 -13 46 -6 127 13 157 25 38 80 61 108 46 13 -7
25 -15 28 -18 13 -15 79 -42 120 -48 56 -9 224 -8 265 1 78 18 131 42 166 76
36 34 39 40 29 65 -6 16 -18 34 -28 42 -14 11 -12 11 16 2 17 -6 35 -15 38
-20 3 -5 13 -9 22 -9 9 0 29 -6 44 -14 71 -37 161 -51 208 -33 29 12 73 54 83
80 8 22 39 35 45 19 2 -7 10 -12 18 -12 8 0 14 -4 14 -10 0 -5 9 -10 20 -10
11 0 20 -3 20 -7 0 -5 10 -13 23 -19 12 -6 51 -28 87 -49 99 -58 153 -84 188
-91 26 -5 32 -3 32 11 0 18 -41 75 -102 139 -21 21 -38 43 -38 47 0 15 131 16
315 4z m-2179 -131 c27 -8 60 -21 74 -28 14 -8 51 -21 83 -30 95 -27 158 -70
170 -115 8 -31 -35 -78 -85 -92 -58 -15 -178 -14 -178 3 0 4 -6 8 -13 8 -21 0
-77 60 -77 82 0 17 5 19 33 13 17 -4 50 -15 72 -26 53 -24 105 -35 105 -21 0
14 -35 50 -85 87 -22 16 -45 34 -52 40 -6 5 -24 20 -40 32 -50 38 -76 63 -66
63 5 0 32 -7 59 -16z m-328 -73 c18 -12 32 -28 32 -36 0 -17 -44 -48 -87 -63
-31 -10 -34 -9 -68 32 -40 49 -45 83 -14 95 32 11 102 -2 137 -28z m-649
-1034 c6 -26 8 -53 5 -59 -4 -6 -3 -8 3 -5 6 4 13 -12 16 -41 4 -26 9 -58 11
-72 13 -65 18 -115 22 -246 4 -136 -3 -194 -25 -194 -15 0 -43 59 -35 72 4 6
3 8 -3 5 -7 -4 -14 8 -18 31 -9 45 -20 438 -16 557 1 36 2 38 14 20 8 -11 19
-42 26 -68z m-154 -43 c9 -19 14 -42 11 -50 -3 -8 -2 -13 2 -10 14 8 43 -87
46 -151 0 -17 4 -29 7 -27 9 5 29 -134 29 -196 0 -27 9 -72 19 -99 46 -114 59
-193 66 -371 5 -131 15 -271 20 -280 1 -3 6 -26 9 -51 3 -26 13 -69 21 -95 20
-68 19 -74 -9 -34 -56 82 -114 241 -131 360 -4 24 -8 47 -10 50 -2 3 -6 34 -9
70 -4 36 -8 76 -11 89 -2 13 -7 52 -10 86 -2 35 -7 78 -10 96 -2 19 -7 59 -10
89 -6 57 -11 87 -19 130 -3 14 -7 39 -10 55 -3 17 -7 40 -10 53 -15 57 -17 71
-22 127 -13 155 -11 211 6 200 4 -3 15 -21 25 -41z m28 -1167 c-3 -5 -1 -7 4
-4 10 6 64 -176 78 -263 3 -19 8 -42 10 -50 7 -25 14 -91 20 -185 11 -162 15
-179 88 -380 22 -60 40 -118 41 -127 0 -9 2 -15 5 -12 8 8 31 -57 24 -69 -3
-5 -2 -7 4 -4 10 6 23 -21 68 -138 14 -38 30 -79 35 -90 21 -50 33 -120 34
-195 0 -43 11 -64 57 -109 24 -23 87 -141 92 -171 2 -14 7 -32 10 -40 14 -34
24 -101 26 -180 7 -249 18 -323 59 -389 28 -46 102 -109 135 -117 42 -9 64
-40 71 -100 1 -11 6 -25 10 -32 7 -11 11 -28 22 -82 24 -122 65 -214 117 -262
35 -32 86 -58 113 -58 16 0 16 -2 -4 -16 -28 -19 -29 -61 -2 -116 11 -22 17
-45 13 -51 -3 -6 -2 -7 3 -4 11 7 99 -148 115 -203 9 -30 18 -39 58 -53 26 -9
67 -36 92 -59 81 -76 186 -235 175 -264 -3 -8 -2 -13 3 -9 13 7 25 -75 13 -87
-11 -11 -82 0 -82 13 0 5 -5 9 -10 9 -14 0 -146 90 -180 121 -69 65 -238 347
-223 373 3 6 3 8 -2 4 -4 -4 -21 18 -37 50 -16 31 -35 62 -41 67 -17 13 -107
132 -107 140 0 3 -12 22 -26 40 -15 20 -23 39 -18 47 4 7 4 10 -1 6 -10 -10
-26 13 -75 108 -22 42 -36 82 -33 88 3 6 2 8 -2 3 -9 -7 -47 69 -80 158 -10
28 -22 55 -25 60 -4 6 -6 18 -4 28 1 11 0 16 -3 13 -9 -9 -75 195 -69 211 3 8
2 12 -2 9 -11 -7 -76 240 -67 255 5 7 4 10 -3 6 -8 -6 -25 49 -23 78 0 2 -4
19 -9 37 -8 24 -7 29 2 20 21 -21 27 -13 25 31 -2 42 -24 67 -39 43 -5 -7 -9
-5 -12 4 -43 136 -55 183 -50 192 4 6 3 8 -2 5 -5 -3 -18 25 -28 61 -11 37
-22 72 -25 77 -3 6 -6 12 -6 15 -1 3 -7 22 -14 42 -7 21 -9 43 -5 49 4 7 3 9
-3 6 -12 -8 -26 49 -16 67 3 6 2 8 -2 3 -7 -6 -72 166 -90 238 -3 11 -21 74
-40 140 -39 132 -90 330 -100 385 -3 19 -10 53 -15 75 -16 77 -29 150 -34 195
-9 77 -17 153 -22 190 -2 19 -7 80 -10 135 -5 96 -4 99 11 66 8 -18 12 -38 8
-44z m1548 -315 c15 -26 15 -79 5 -347 -5 -128 -3 -144 16 -183 11 -23 29 -47
38 -52 16 -9 37 -63 32 -82 -1 -5 2 -8 7 -8 11 0 43 -111 48 -167 4 -37 2 -43
-14 -43 -45 0 -102 46 -313 250 -59 58 -129 123 -156 145 -26 22 -52 45 -58
50 -12 11 -112 92 -134 110 -7 5 -24 21 -38 35 -22 23 -23 25 -6 28 18 3 18 6
-5 70 -13 36 -26 92 -29 124 -3 52 -1 59 20 73 22 15 27 14 65 -2 23 -10 41
-21 41 -25 0 -5 5 -8 10 -8 6 0 16 -5 23 -10 91 -77 167 -143 182 -157 7 -7
36 -26 64 -43 88 -51 139 -37 151 43 8 52 -8 189 -24 216 -4 5 -1 11 6 13 25
9 56 -5 69 -30z m-30 -1004 c22 -6 39 -15 39 -20 0 -4 9 -8 19 -8 11 0 21 -3
23 -7 4 -10 57 -42 81 -50 9 -3 17 -9 17 -14 0 -5 7 -9 15 -9 8 0 15 -4 15
-10 0 -5 7 -10 15 -10 8 0 15 -4 15 -10 0 -5 7 -10 15 -10 8 0 15 -4 15 -10 0
-5 6 -10 14 -10 8 0 16 -3 18 -7 4 -10 57 -42 81 -50 23 -7 22 -30 -3 -38 -11
-3 -45 -8 -77 -11 -32 -2 -67 -6 -78 -8 -11 -3 -23 -5 -27 -5 -4 -1 -12 -10
-18 -20 -14 -27 1 -62 50 -115 l41 -44 -77 24 c-42 13 -81 21 -85 18 -23 -14
2 -61 68 -134 93 -102 105 -120 83 -120 -6 0 -14 -10 -19 -22 -9 -25 7 -69 44
-123 74 -109 84 -155 42 -200 l-25 -28 48 -71 c56 -85 73 -116 63 -116 -23 0
-225 193 -308 294 -22 27 -42 52 -45 55 -3 3 -39 35 -80 71 -97 83 -220 209
-242 247 -33 58 -4 55 60 -7 80 -76 119 -103 137 -96 12 4 11 13 -10 49 -13
25 -21 48 -17 52 4 5 2 6 -3 2 -6 -3 -22 11 -35 31 -13 20 -45 66 -71 102 -25
36 -52 76 -59 89 -11 22 -11 23 6 16 41 -17 64 -17 70 -1 6 17 -26 85 -71 152
-14 21 -23 44 -20 51 2 8 1 12 -4 9 -5 -3 -11 3 -14 15 -4 17 -2 19 16 13 12
-4 39 -18 60 -31 51 -32 66 -20 59 47 -2 28 -2 50 2 50 17 0 75 -42 128 -92
45 -44 63 -37 29 10 -30 43 -61 109 -54 116 8 8 9 8 54 -6z m26 -1373 c28 -8
64 -22 80 -30 15 -8 34 -15 41 -15 6 0 12 -3 12 -8 0 -4 15 -13 33 -21 38 -17
121 -71 125 -83 2 -4 8 -8 14 -8 5 0 15 -6 23 -12 7 -7 26 -23 42 -35 15 -12
41 -33 57 -46 16 -14 41 -31 55 -38 64 -33 141 -101 141 -125 0 -27 -42 -37
-126 -31 -84 6 -234 43 -234 59 0 4 -7 8 -16 8 -18 0 -77 31 -82 43 -2 4 -8 7
-13 7 -11 0 -29 14 -68 54 -16 16 -51 41 -77 56 -39 21 -55 39 -86 96 -70 128
-47 166 79 129z m756 -307 c66 -45 167 -142 206 -198 14 -21 46 -46 80 -62 58
-28 121 -79 121 -97 0 -25 -100 -2 -162 36 -21 13 -42 23 -48 23 -5 0 -10 3
-10 8 0 4 -17 18 -37 32 -58 38 -105 89 -99 106 3 7 2 14 -3 14 -13 0 -71 87
-63 95 4 5 2 5 -4 2 -15 -9 -38 19 -28 34 4 7 3 9 -3 6 -6 -4 -15 5 -21 18
-16 36 -1 32 71 -17z m310 -80 c40 -11 74 -24 77 -27 3 -4 17 -12 33 -19 34
-15 95 -69 102 -92 3 -9 23 -26 45 -36 22 -10 40 -22 40 -26 0 -5 7 -8 15 -8
18 0 148 -80 142 -87 -10 -9 -211 58 -227 76 -3 4 -27 17 -55 31 -27 14 -78
53 -113 88 -34 34 -65 62 -67 62 -11 0 -75 45 -75 53 0 10 4 9 83 -15z m-113
-660 c61 -46 213 -198 206 -206 -7 -6 -96 31 -96 41 0 4 -7 7 -15 7 -8 0 -15
5 -15 10 0 6 -7 10 -15 10 -8 0 -15 5 -15 10 0 6 -6 10 -12 10 -34 1 -148 135
-148 174 0 12 58 -17 110 -56z m-507 -654 c9 -4 17 -10 17 -15 0 -5 7 -9 15
-9 8 0 15 -4 15 -8 0 -4 13 -15 29 -25 16 -9 65 -54 108 -98 120 -124 221
-221 298 -284 26 -22 64 -55 83 -72 19 -18 48 -43 64 -55 16 -13 38 -30 49
-40 41 -34 102 -83 118 -95 93 -72 127 -99 129 -105 2 -5 10 -8 18 -8 8 0 14
-3 14 -7 0 -5 23 -24 50 -43 27 -19 50 -38 50 -42 0 -5 5 -8 11 -8 6 0 16 -6
23 -12 7 -7 27 -24 45 -38 18 -14 38 -29 44 -35 7 -5 30 -23 52 -40 22 -16 45
-34 51 -40 6 -5 25 -21 43 -35 18 -14 41 -32 52 -42 11 -9 38 -31 59 -48 21
-17 49 -40 62 -51 45 -36 25 -26 219 -118 47 -23 91 -41 98 -41 6 0 11 -4 11
-10 0 -5 7 -10 16 -10 9 0 28 -7 42 -15 61 -33 155 -75 168 -75 8 0 14 -4 14
-10 0 -5 5 -10 12 -10 12 0 77 -27 131 -55 16 -8 34 -15 40 -15 7 0 29 -9 50
-20 20 -11 43 -20 50 -20 7 0 29 -8 49 -18 90 -46 513 -147 561 -134 4 1 14
-3 21 -10 41 -40 107 -85 139 -95 9 -3 17 -9 17 -14 0 -5 7 -9 15 -9 9 0 26
-6 38 -14 34 -21 436 -132 510 -140 36 -5 139 -36 187 -58 25 -11 56 -25 70
-31 45 -20 129 -72 130 -80 0 -10 -73 -3 -210 23 -36 6 -72 12 -80 12 -8 0
-29 4 -46 9 -17 5 -45 11 -61 13 -17 2 -65 14 -108 26 -43 12 -90 23 -104 25
-42 5 -213 56 -241 71 -14 7 -61 25 -105 38 -88 28 -190 65 -245 88 -19 9 -50
19 -67 23 -18 3 -33 10 -33 15 0 5 -15 12 -32 16 -18 3 -49 15 -68 25 -19 11
-43 19 -52 19 -10 0 -18 4 -18 9 0 5 -15 13 -32 16 -18 4 -44 13 -58 21 -40
21 -118 54 -129 54 -6 0 -11 4 -11 10 0 5 -16 12 -35 16 -19 3 -35 10 -35 15
0 5 -5 9 -11 9 -12 0 -91 33 -131 55 -14 8 -33 15 -42 15 -9 0 -16 4 -16 9 0
5 -13 12 -30 16 -16 4 -30 11 -30 16 0 5 -7 9 -16 9 -9 0 -28 6 -42 14 -15 8
-56 28 -92 44 -36 16 -92 42 -125 57 -33 15 -92 43 -131 61 -39 19 -76 34 -83
34 -6 0 -11 5 -11 10 0 6 -7 10 -15 10 -9 0 -41 13 -72 30 -31 16 -62 30 -69
30 -7 0 -14 3 -16 8 -1 4 -30 20 -63 37 -33 16 -62 32 -65 35 -3 3 -18 12 -35
20 -16 8 -62 36 -102 62 -40 27 -77 48 -83 48 -5 0 -10 5 -10 10 0 6 -7 10
-15 10 -8 0 -15 5 -15 10 0 6 -7 10 -15 10 -8 0 -15 4 -15 8 0 4 -15 16 -32
27 -18 10 -35 21 -38 25 -3 3 -25 20 -50 37 -25 17 -56 40 -70 52 -30 25 -34
28 -85 65 -22 17 -42 33 -45 36 -3 3 -25 21 -50 40 -65 50 -80 62 -108 88 -14
12 -38 33 -54 45 -16 12 -38 29 -49 39 -11 9 -39 31 -61 50 -23 18 -55 45 -70
61 -16 15 -32 27 -36 27 -11 0 -287 279 -356 361 -16 19 -36 42 -44 52 -27 30
2 18 48 -20 24 -21 107 -101 184 -178 78 -77 161 -156 185 -175 25 -19 55 -45
68 -57 13 -11 41 -35 63 -53 21 -17 49 -40 61 -51 12 -10 25 -19 29 -19 3 0
15 -8 26 -18 30 -28 111 -82 123 -82 25 0 7 33 -52 92 -35 35 -78 74 -97 88
-115 86 -474 446 -513 515 -6 12 -4 13 15 5 13 -6 31 -13 41 -16z m1252 -907
c22 -12 42 -24 45 -27 5 -5 53 -31 155 -84 22 -12 42 -24 43 -28 2 -5 10 -8
17 -8 7 0 15 -3 17 -7 2 -5 30 -21 63 -38 33 -16 62 -32 65 -35 5 -5 85 -45
151 -74 38 -18 167 -131 158 -140 -6 -7 -85 17 -124 38 -16 9 -37 16 -47 16
-9 0 -18 3 -20 8 -1 4 -21 15 -43 26 -22 10 -52 25 -66 32 -15 8 -46 24 -70
36 -24 13 -46 25 -49 28 -10 10 -65 41 -82 47 -10 3 -18 9 -18 14 0 5 -7 9
-15 9 -8 0 -15 5 -15 10 0 6 -7 10 -15 10 -8 0 -15 5 -15 10 0 6 -5 10 -11 10
-6 0 -17 6 -24 13 -30 27 -132 118 -165 147 l-35 31 30 -11 c16 -6 47 -21 70
-33z m1836 -159 c24 -37 -14 -214 -45 -212 -8 1 -13 -2 -11 -7 3 -4 -14 -17
-37 -27 -94 -42 -107 -37 -104 41 1 42 -2 49 -21 53 -12 3 -46 -2 -75 -12 -76
-26 -93 -24 -91 8 3 41 48 84 116 109 34 12 67 26 72 30 19 14 120 36 154 33
19 -1 38 -8 42 -16z m274 -187 c6 -1 16 -5 24 -10 12 -8 12 -12 -2 -26 -9 -9
-22 -13 -28 -9 -7 4 -9 3 -5 -4 4 -6 -33 -26 -96 -50 -93 -37 -104 -39 -115
-24 -55 70 78 144 222 123z m1754 -507 c64 -19 130 -40 146 -48 96 -44 123
-56 130 -56 9 0 120 -51 167 -76 14 -8 33 -14 42 -14 9 0 16 -4 16 -10 0 -5 5
-10 11 -10 6 0 27 -7 47 -16 98 -44 120 -53 155 -64 46 -14 41 -25 -20 -39
-54 -12 -84 -12 -128 0 -16 5 -45 11 -63 14 -18 3 -41 10 -50 15 -9 5 -49 19
-89 30 -40 11 -75 25 -78 30 -3 6 -13 10 -22 10 -9 0 -35 9 -57 19 -23 10 -59
25 -81 31 -22 7 -42 16 -45 20 -8 10 -221 70 -250 70 -14 0 -35 6 -46 14 -11
8 -38 19 -61 25 -22 6 -46 18 -53 27 -11 12 -9 18 10 32 67 48 143 47 319 -4z
m1870 -643 c20 -5 72 -17 116 -26 118 -25 264 -65 310 -85 22 -9 47 -20 55
-24 8 -3 -23 -4 -69 -1 -45 3 -86 7 -91 10 -4 2 -24 7 -45 9 -125 16 -335 77
-335 98 0 5 -6 8 -14 8 -8 0 -18 5 -21 10 -8 13 45 13 94 1z"/>
<path d="M2611 10637 c-36 -12 -66 -27 -68 -33 -3 -10 82 -41 100 -36 36 11
192 12 223 2 39 -13 41 -14 87 -55 22 -19 40 -25 80 -26 122 -3 168 1 188 14
l20 15 -23 24 c-13 14 -34 29 -48 33 -14 4 -29 11 -35 15 -15 12 -127 44 -148
42 -10 0 -31 4 -45 10 -15 5 -81 12 -147 13 -104 4 -129 1 -184 -18z"/>
<path d="M2142 10583 c-30 -26 -30 -42 1 -94 30 -51 77 -76 158 -84 88 -9 97
46 20 125 -65 67 -137 88 -179 53z"/>
<path d="M1922 10512 c-24 -4 -92 -65 -111 -100 -9 -18 -6 -21 36 -33 50 -14
74 -31 132 -93 100 -108 135 -132 172 -121 26 8 25 73 -2 145 -11 30 -21 60
-21 67 -1 7 -5 10 -9 7 -4 -2 -10 4 -13 14 -8 23 -62 82 -75 82 -6 0 -11 4
-11 9 0 11 -69 28 -98 23z"/>
<path d="M4205 10477 c-41 -10 -87 -39 -141 -89 -29 -27 -31 -32 -21 -59 6
-16 15 -29 20 -29 12 0 37 27 37 39 0 6 5 11 10 11 6 0 10 9 10 19 0 18 7 20
78 18 81 -3 125 10 136 40 14 36 -62 66 -129 50z"/>
<path d="M3950 9341 c-8 -6 -19 -7 -25 -4 -5 4 -7 3 -3 -1 6 -7 -13 -35 -54
-78 -10 -10 -18 -22 -18 -28 0 -5 -4 -10 -10 -10 -5 0 -10 -7 -10 -15 0 -8 -4
-15 -10 -15 -5 0 -10 -6 -10 -14 0 -8 -3 -16 -7 -18 -7 -3 -20 -27 -81 -159
-31 -66 -37 -171 -11 -221 22 -43 55 -56 97 -39 29 12 112 85 112 98 0 5 11
20 25 35 14 15 25 30 25 33 0 3 9 15 20 27 11 12 20 28 20 35 0 7 5 13 10 13
6 0 10 9 10 20 0 11 3 20 8 20 11 0 62 123 62 151 0 35 -79 -27 -101 -78 -8
-18 -17 -33 -21 -33 -5 0 -8 -7 -8 -15 0 -8 -4 -15 -10 -15 -5 0 -10 -9 -10
-19 0 -11 -3 -21 -7 -23 -5 -1 -21 -20 -36 -41 -29 -39 -52 -41 -41 -4 10 36
67 152 76 155 4 2 8 10 8 18 0 8 5 14 10 14 6 0 10 5 10 10 0 6 9 23 20 38 26
35 32 148 10 162 -19 12 -31 12 -50 1z"/>
<path d="M2317 9283 c13 -97 8 -216 -12 -258 -19 -42 -27 -71 -18 -61 3 3 23
-18 45 -47 48 -65 151 -170 184 -187 18 -10 27 -11 35 -3 12 12 5 30 -44 114
l-27 46 31 1 c42 1 62 19 48 43 -5 11 -7 25 -3 31 4 6 3 8 -3 5 -9 -5 -63 49
-141 141 -11 12 -32 62 -47 110 -15 48 -28 93 -30 100 -3 6 -9 12 -14 12 -6 0
-7 -19 -4 -47z"/>
<path d="M2090 8895 c0 -25 34 -60 93 -96 39 -24 89 -62 111 -84 23 -22 59
-53 81 -69 22 -17 42 -33 45 -36 11 -13 108 -70 118 -70 42 0 -20 81 -133 175
-26 22 -62 52 -79 67 -17 15 -42 33 -56 40 -14 7 -27 15 -30 18 -13 13 -56 33
-99 46 -53 16 -51 15 -51 9z"/>
<path d="M1962 8868 c-11 -14 -8 -67 7 -108 5 -14 14 -44 21 -67 13 -41 76
-113 100 -113 5 0 10 -4 10 -10 0 -5 7 -10 15 -10 8 0 15 -3 15 -8 0 -4 12
-13 28 -20 15 -6 41 -24 58 -40 71 -62 85 -72 94 -72 6 0 10 -4 10 -9 0 -9 80
-45 86 -39 1 2 5 16 8 32 3 16 2 26 -1 22 -6 -5 -21 16 -39 54 -12 24 -119
164 -166 215 -84 93 -146 150 -186 171 -33 17 -47 18 -60 2z"/>
<path d="M1737 8804 c-12 -12 6 -62 50 -139 26 -44 59 -105 75 -135 30 -58 76
-93 150 -116 44 -14 64 1 54 40 -7 28 -73 128 -117 176 -144 159 -190 196
-212 174z"/>
<path d="M1650 8698 c0 -7 12 -46 25 -87 14 -41 23 -81 20 -88 -2 -8 -1 -12 4
-9 4 3 8 -8 9 -24 1 -41 -10 -38 -49 13 -18 23 -58 67 -88 97 -51 50 -56 53
-59 32 -4 -29 20 -93 79 -207 25 -49 50 -101 54 -115 20 -67 99 -129 137 -109
10 5 18 7 18 3 0 -13 51 40 72 75 49 79 13 206 -77 273 -28 21 -63 59 -79 86
-29 50 -66 84 -66 60z"/>
<path d="M2256 8078 c-4 -13 -14 -48 -23 -78 -23 -78 -21 -425 2 -527 3 -13 7
-33 10 -45 2 -13 16 -51 31 -86 32 -77 53 -85 118 -49 69 38 78 32 136 -95 16
-33 29 -28 24 9 -15 105 -1 150 48 155 53 5 61 35 31 116 -14 37 -26 77 -27
89 0 12 -3 19 -5 17 -8 -8 -31 58 -24 69 3 5 1 7 -4 4 -13 -8 -56 91 -46 106
3 5 2 7 -4 4 -5 -3 -18 11 -29 31 -73 143 -121 201 -141 169 -7 -11 -5 -90 3
-129 2 -13 7 -50 10 -83 3 -33 7 -73 9 -90 2 -16 -1 -36 -8 -44 -9 -11 -9 -13
0 -8 8 5 11 -2 11 -24 -1 -20 -4 -26 -9 -17 -9 15 -45 157 -54 208 -3 19 -8
42 -10 51 -7 22 -24 188 -25 242 0 33 -15 36 -24 5z"/>
<path d="M3230 7863 c-20 -7 -50 -39 -50 -53 0 -5 -4 -10 -10 -10 -5 0 -10 -9
-10 -19 0 -11 -4 -23 -10 -26 -5 -3 -17 -30 -26 -60 -8 -30 -20 -57 -25 -60
-5 -4 -9 -18 -9 -33 0 -15 -6 -47 -14 -72 -14 -49 -11 -259 3 -244 10 10 39
-74 37 -108 0 -20 2 -34 6 -32 5 3 8 -1 8 -9 0 -26 33 -54 57 -48 31 8 83 58
83 80 0 5 3 11 8 13 11 5 42 64 42 81 0 9 6 18 13 20 8 3 2 14 -17 29 -25 21
-28 30 -23 60 3 19 14 55 26 80 34 75 46 136 31 163 -13 24 -53 41 -71 30 -6
-4 -7 19 -3 65 7 83 -2 160 -19 159 -7 0 -19 -3 -27 -6z"/>
<path d="M2083 7798 c-26 -19 -31 -27 -25 -48 3 -14 6 -35 7 -47 0 -11 3 -19
8 -16 4 2 7 -2 7 -10 0 -17 31 -47 49 -47 17 0 38 57 40 108 0 30 -5 48 -19
62 -25 25 -28 25 -67 -2z"/>
<path d="M3699 7697 c-42 -59 -119 -261 -105 -275 3 -3 7 -3 9 -1 77 104 137
221 137 267 0 37 -18 41 -41 9z"/>
<path d="M3560 6096 c0 -8 -5 -16 -11 -18 -10 -3 -14 -120 -5 -185 9 -61 27
-114 37 -107 6 3 21 30 35 60 39 85 33 226 -10 256 -18 13 -46 9 -46 -6z"/>
<path d="M3991 4348 c-15 -24 -16 -116 -2 -181 6 -26 10 -50 9 -54 -1 -5 3
-18 10 -31 7 -12 10 -28 6 -35 -4 -6 -4 -9 1 -5 11 10 68 -100 59 -115 -4 -6
-4 -9 0 -5 5 4 17 -2 29 -12 16 -16 23 -17 35 -8 20 17 10 161 -16 245 -11 34
-17 65 -13 69 3 4 1 4 -6 1 -7 -5 -21 18 -39 64 -31 79 -53 99 -73 67z"/>
</g>
</svg>
